<svg xmlns="http://www.w3.org/2000/svg" viewBox="0 0 512 512" fill="none" aria-hidden="true">
  <defs>
    <radialGradient id="halo" cx="50%" cy="50%" r="50%">
      <stop offset="0" stop-color="#E9FEFF" stop-opacity=".38"/>
      <stop offset=".24" stop-color="#70E8FF" stop-opacity=".22"/>
      <stop offset=".58" stop-color="#198BE2" stop-opacity=".10"/>
      <stop offset="1" stop-color="#03101D" stop-opacity="0"/>
    </radialGradient>
    <radialGradient id="core" cx="50%" cy="42%" r="62%">
      <stop offset="0" stop-color="#FFFFFF"/>
      <stop offset=".15" stop-color="#CBFBFF"/>
      <stop offset=".42" stop-color="#5CDEFF"/>
      <stop offset=".72" stop-color="#1688DA"/>
      <stop offset="1" stop-color="#07192B"/>
    </radialGradient>
    <linearGradient id="metal" x1="118" y1="92" x2="394" y2="420" gradientUnits="userSpaceOnUse">
      <stop stop-color="#E7FAFF"/>
      <stop offset=".18" stop-color="#7EE6FF"/>
      <stop offset=".47" stop-color="#219FD9"/>
      <stop offset=".76" stop-color="#0E5796"/>
      <stop offset="1" stop-color="#06243E"/>
    </linearGradient>
    <linearGradient id="cyan" x1="168" y1="156" x2="344" y2="356" gradientUnits="userSpaceOnUse">
      <stop stop-color="#D8FDFF"/>
      <stop offset=".46" stop-color="#61DEFF"/>
      <stop offset="1" stop-color="#087AD0"/>
    </linearGradient>
    <linearGradient id="darkMetal" x1="142" y1="128" x2="370" y2="388" gradientUnits="userSpaceOnUse">
      <stop stop-color="#1D3E5B"/>
      <stop offset=".5" stop-color="#071524"/>
      <stop offset="1" stop-color="#102E4A"/>
    </linearGradient>
    <filter id="glowSmall" x="-60%" y="-60%" width="220%" height="220%">
      <feGaussianBlur stdDeviation="6" result="blur"/>
      <feMerge><feMergeNode in="blur"/><feMergeNode in="SourceGraphic"/></feMerge>
    </filter>
    <filter id="glowWide" x="-80%" y="-80%" width="260%" height="260%">
      <feGaussianBlur stdDeviation="18" result="blur"/>
      <feMerge><feMergeNode in="blur"/><feMergeNode in="SourceGraphic"/></feMerge>
    </filter>
  </defs>

  <circle cx="256" cy="256" r="236" fill="url(#halo)"/>
  <circle cx="256" cy="256" r="204" fill="#06101C" stroke="#16314A" stroke-width="4"/>
  <circle cx="256" cy="256" r="194" fill="#081421" stroke="url(#metal)" stroke-width="9"/>
  <circle cx="256" cy="256" r="181" fill="#050D17" stroke="#244968" stroke-width="18"/>
  <circle cx="256" cy="256" r="169" stroke="#7DEBFF" stroke-opacity=".34" stroke-width="2"/>

  <g stroke="url(#cyan)" stroke-width="8" stroke-linecap="round" opacity=".95">
    <path d="M256 63a193 193 0 0 1 82 18"/>
    <path d="M382 109a193 193 0 0 1 57 76"/>
    <path d="M449 227a193 193 0 0 1-4 76"/>
    <path d="M426 343a193 193 0 0 1-60 64"/>
    <path d="M321 444a193 193 0 0 1-83 4"/>
    <path d="M188 441a193 193 0 0 1-77-45"/>
    <path d="M78 360a193 193 0 0 1-25-84"/>
    <path d="M55 225a193 193 0 0 1 35-83"/>
    <path d="M128 105a193 193 0 0 1 75-37"/>
  </g>

  <circle cx="256" cy="256" r="148" fill="url(#darkMetal)" stroke="#193A58" stroke-width="14"/>
  <circle cx="256" cy="256" r="134" fill="#06101A" stroke="#59DFFF" stroke-opacity=".24" stroke-width="3"/>
  <circle cx="256" cy="256" r="116" fill="#07111C" stroke="#173A5D" stroke-width="15"/>
  <circle cx="256" cy="256" r="102" fill="#040B13" stroke="#74E8FF" stroke-opacity=".27" stroke-width="2"/>

  <g fill="#0A1B2B" stroke="url(#metal)" stroke-width="8" stroke-linejoin="round">
    <path d="M222 113h68l-11 42h-46l-11-42Z"/>
    <path d="M355 151l34 59-42 11-23-40 31-30Z"/>
    <path d="M390 302l-34 59-31-30 23-40 42 11Z"/>
    <path d="M290 399h-68l11-42h46l11 42Z"/>
    <path d="M157 361l-34-59 42-11 23 40-31 30Z"/>
    <path d="M122 210l34-59 31 30-23 40-42-11Z"/>
  </g>

  <g stroke="#6EE7FF" stroke-width="3" opacity=".75">
    <path d="M256 151v-26"/><path d="M347 203l23-13"/><path d="M347 309l23 13"/>
    <path d="M256 361v26"/><path d="M165 309l-23 13"/><path d="M165 203l-23-13"/>
  </g>

  <circle cx="256" cy="256" r="82" fill="url(#halo)" filter="url(#glowWide)"/>
  <circle cx="256" cy="256" r="72" fill="#071321" stroke="url(#cyan)" stroke-width="5"/>
  <circle cx="256" cy="256" r="60" fill="#0A2036" stroke="#BBF8FF" stroke-opacity=".66" stroke-width="2"/>

  <g filter="url(#glowSmall)">
    <path d="M183 205H329L256 336L183 205Z" fill="#06111E" stroke="url(#cyan)" stroke-width="11" stroke-linejoin="round"/>
    <path d="M205 221H307L256 313L205 221Z" fill="#0A2D4D" stroke="#C7FBFF" stroke-width="4" stroke-linejoin="round"/>
    <path d="M227 238H285L256 290L227 238Z" fill="url(#core)" stroke="#E8FEFF" stroke-width="2.5"/>
    <circle cx="256" cy="266" r="11" fill="#FFFFFF"/>
  </g>

  <g stroke="#89ECFF" stroke-opacity=".38" stroke-width="2" stroke-dasharray="7 11">
    <circle cx="256" cy="256" r="174"/>
    <circle cx="256" cy="256" r="126"/>
  </g>
</svg>
