<svg xmlns="http://www.w3.org/2000/svg" viewBox="0 0 512 512" fill="none" aria-hidden="true">
  <defs>
    <radialGradient id="bgGlow" cx="50%" cy="50%" r="50%">
      <stop offset="0%" stop-color="#39d8ff" stop-opacity="0.18"/>
      <stop offset="42%" stop-color="#1183d6" stop-opacity="0.10"/>
      <stop offset="100%" stop-color="#020913" stop-opacity="0"/>
    </radialGradient>
    <radialGradient id="coreGlow" cx="50%" cy="45%" r="60%">
      <stop offset="0%" stop-color="#f6ffff"/>
      <stop offset="16%" stop-color="#a9f7ff"/>
      <stop offset="42%" stop-color="#57d7ff"/>
      <stop offset="74%" stop-color="#1080d7"/>
      <stop offset="100%" stop-color="#0a2442"/>
    </radialGradient>
    <linearGradient id="ringStroke" x1="96" y1="96" x2="416" y2="416" gradientUnits="userSpaceOnUse">
      <stop stop-color="#9cecff"/>
      <stop offset="0.45" stop-color="#47d3ff"/>
      <stop offset="1" stop-color="#0e6ec5"/>
    </linearGradient>
    <linearGradient id="metal" x1="144" y1="120" x2="368" y2="392" gradientUnits="userSpaceOnUse">
      <stop stop-color="#d9f8ff"/>
      <stop offset="0.2" stop-color="#77dfff"/>
      <stop offset="0.5" stop-color="#1ca6ea"/>
      <stop offset="0.78" stop-color="#0f6abf"/>
      <stop offset="1" stop-color="#0a395e"/>
    </linearGradient>
    <linearGradient id="triangleEdge" x1="256" y1="170" x2="256" y2="346" gradientUnits="userSpaceOnUse">
      <stop stop-color="#baf6ff"/>
      <stop offset="0.5" stop-color="#61dcff"/>
      <stop offset="1" stop-color="#0c8ddd"/>
    </linearGradient>
    <filter id="softGlow" x="-50%" y="-50%" width="200%" height="200%">
      <feGaussianBlur stdDeviation="8" result="b"/>
      <feMerge><feMergeNode in="b"/><feMergeNode in="SourceGraphic"/></feMerge>
    </filter>
    <filter id="wideGlow" x="-80%" y="-80%" width="260%" height="260%">
      <feGaussianBlur stdDeviation="18" result="b"/>
      <feColorMatrix in="b" type="matrix" values="1 0 0 0 0  0 1 0 0 0.85  0 0 1 0 1  0 0 0 0.95 0"/>
      <feMerge><feMergeNode/><feMergeNode in="SourceGraphic"/></feMerge>
    </filter>
  </defs>

  <circle cx="256" cy="256" r="224" fill="url(#bgGlow)"/>
  <circle cx="256" cy="256" r="191" stroke="#1d3349" stroke-width="3" fill="#071120"/>
  <circle cx="256" cy="256" r="181" stroke="#10273f" stroke-width="18" fill="#091423"/>
  <circle cx="256" cy="256" r="173" stroke="url(#ringStroke)" stroke-width="3.5" opacity="0.9"/>
  <circle cx="256" cy="256" r="146" stroke="#274e77" stroke-width="18" fill="#08101c"/>
  <circle cx="256" cy="256" r="135" stroke="#9feeff" stroke-opacity="0.34" stroke-width="2"/>
  <circle cx="256" cy="256" r="116" stroke="#14365a" stroke-width="14" fill="#050d18"/>
  <circle cx="256" cy="256" r="106" stroke="#7addff" stroke-opacity="0.22" stroke-width="2.5"/>

  <g opacity="0.9">
    <path d="M256 73l10 23 25 6-18 18 4 25-21-12-21 12 4-25-18-18 25-6 10-23z" fill="#8ae8ff" opacity="0.22"/>
    <path d="M256 439l10-23 25-6-18-18 4-25-21 12-21-12 4 25-18 18 25 6 10 23z" fill="#8ae8ff" opacity="0.18"/>
    <path d="M73 256l23-10 6-25 18 18 25-4-12 21 12 21-25-4-18 18-6-25-23-10z" fill="#8ae8ff" opacity="0.18"/>
    <path d="M439 256l-23-10-6-25-18 18-25-4 12 21-12 21 25-4 18 18 6-25 23-10z" fill="#8ae8ff" opacity="0.18"/>
  </g>

  <g filter="url(#wideGlow)">
    <circle cx="256" cy="256" r="78" fill="url(#coreGlow)" fill-opacity="0.22"/>
  </g>

  <g opacity="0.95" stroke="url(#metal)" stroke-width="10" stroke-linecap="round" stroke-linejoin="round">
    <path d="M174 203l-34-62"/>
    <path d="M338 203l34-62"/>
    <path d="M174 309l-34 62"/>
    <path d="M338 309l34 62"/>
    <path d="M256 164V107"/>
    <path d="M256 405v-57"/>
  </g>

  <g opacity="0.7" stroke="#86efff" stroke-width="3">
    <line x1="256" y1="141" x2="256" y2="118"/>
    <line x1="196" y1="176" x2="180" y2="150"/>
    <line x1="316" y1="176" x2="332" y2="150"/>
    <line x1="196" y1="336" x2="180" y2="362"/>
    <line x1="316" y1="336" x2="332" y2="362"/>
    <line x1="256" y1="371" x2="256" y2="394"/>
  </g>

  <g filter="url(#softGlow)">
    <circle cx="256" cy="256" r="58" stroke="#c9fbff" stroke-width="4" opacity="0.9"/>
    <circle cx="256" cy="256" r="48" stroke="#55d8ff" stroke-width="2.4" opacity="0.8"/>
    <path d="M256 181L321 293H191L256 181Z" fill="#071625" stroke="url(#triangleEdge)" stroke-width="10" stroke-linejoin="round"/>
    <path d="M256 205L299 280H213L256 205Z" fill="#0d2d4f" stroke="#aef6ff" stroke-width="3.5" stroke-linejoin="round"/>
    <path d="M256 227L281 272H231L256 227Z" fill="#c8fbff" opacity="0.92"/>
    <circle cx="256" cy="256" r="10" fill="#ffffff"/>
  </g>

  <g opacity="0.6" stroke="#70e7ff" stroke-width="2" stroke-dasharray="6 10">
    <circle cx="256" cy="256" r="168"/>
    <circle cx="256" cy="256" r="128" opacity="0.65"/>
  </g>
</svg>
